{
    "asset" : {
        "generator" : "Khronos glTF Blender I/O v3.4.50",
        "version" : "2.0"
    },
    "extensionsUsed" : [
        "KHR_materials_specular",
        "KHR_materials_ior"
    ],
    "scene" : 0,
    "scenes" : [
        {
            "name" : "Scene",
            "nodes" : [
                0,
                1
            ]
        }
    ],
    "nodes" : [
        {
            "mesh" : 0,
            "name" : "_3D---ARCHIVADOR_GRANDE_ARD-node",
            "translation" : [
                0.24006155133247375,
                0.14149218797683716,
                -0.110112763941288
            ]
        },
        {
            "mesh" : 1,
            "name" : "_3D---ARCHIVADOR_GRANDE_ARD-node.001",
            "translation" : [
                -0.10444721579551697,
                0.17645050585269928,
                0.24022075533866882
            ]
        }
    ],
    "materials" : [
        {
            "doubleSided" : true,
            "extensions" : {
                "KHR_materials_specular" : {
                    "specularColorFactor" : [
                        0,
                        0,
                        0
                    ]
                },
                "KHR_materials_ior" : {
                    "ior" : 0
                }
            },
            "name" : "_3D---ARCHIVADOR_GRANDE_ARD_front",
            "pbrMetallicRoughness" : {
                "baseColorTexture" : {
                    "index" : 0
                },
                "metallicFactor" : 0,
                "roughnessFactor" : 0.5
            }
        },
        {
            "doubleSided" : true,
            "extensions" : {
                "KHR_materials_specular" : {
                    "specularColorFactor" : [
                        0,
                        0,
                        0
                    ]
                },
                "KHR_materials_ior" : {
                    "ior" : 0
                }
            },
            "name" : "_3D---ARCHIVADOR_GRANDE_ARD_back",
            "pbrMetallicRoughness" : {
                "baseColorFactor" : [
                    0.996078372001648,
                    0.9019607901573181,
                    0.6627451181411743,
                    1
                ],
                "metallicFactor" : 0,
                "roughnessFactor" : 0.5
            }
        },
        {
            "doubleSided" : true,
            "extensions" : {
                "KHR_materials_specular" : {
                    "specularColorFactor" : [
                        0,
                        0,
                        0
                    ]
                },
                "KHR_materials_ior" : {
                    "ior" : 0
                }
            },
            "name" : "_3D---ARCHIVADOR_GRANDE_ARD_edge",
            "pbrMetallicRoughness" : {
                "baseColorTexture" : {
                    "index" : 1
                },
                "metallicFactor" : 0,
                "roughnessFactor" : 0.5
            }
        },
        {
            "doubleSided" : true,
            "extensions" : {
                "KHR_materials_specular" : {
                    "specularColorFactor" : [
                        0,
                        0,
                        0
                    ]
                },
                "KHR_materials_ior" : {
                    "ior" : 0
                }
            },
            "name" : "_3D---ARCHIVADOR_GRANDE_ARD_front.001",
            "pbrMetallicRoughness" : {
                "baseColorTexture" : {
                    "index" : 2
                },
                "metallicFactor" : 0,
                "roughnessFactor" : 0.5
            }
        },
        {
            "doubleSided" : true,
            "extensions" : {
                "KHR_materials_specular" : {
                    "specularColorFactor" : [
                        0,
                        0,
                        0
                    ]
                },
                "KHR_materials_ior" : {
                    "ior" : 0
                }
            },
            "name" : "back-dil",
            "pbrMetallicRoughness" : {
                "baseColorFactor" : [
                    0.5135137438774109,
                    0.34278422594070435,
                    0.2713626027107239,
                    1
                ],
                "metallicFactor" : 0
            }
        },
        {
            "doubleSided" : true,
            "extensions" : {
                "KHR_materials_specular" : {
                    "specularColorFactor" : [
                        0,
                        0,
                        0
                    ]
                },
                "KHR_materials_ior" : {
                    "ior" : 0
                }
            },
            "name" : "_3D---ARCHIVADOR_GRANDE_ARD_edge.001",
            "pbrMetallicRoughness" : {
                "baseColorTexture" : {
                    "index" : 3
                },
                "metallicFactor" : 0,
                "roughnessFactor" : 0.5
            }
        }
    ],
    "meshes" : [
        {
            "name" : "_3D---ARCHIVADOR_GRANDE_ARD-geom",
            "primitives" : [
                {
                    "attributes" : {
                        "POSITION" : 0,
                        "TEXCOORD_0" : 1,
                        "NORMAL" : 2
                    },
                    "indices" : 3,
                    "material" : 0
                },
                {
                    "attributes" : {
                        "POSITION" : 4,
                        "TEXCOORD_0" : 5,
                        "NORMAL" : 6
                    },
                    "indices" : 7,
                    "material" : 1
                },
                {
                    "attributes" : {
                        "POSITION" : 8,
                        "TEXCOORD_0" : 9,
                        "NORMAL" : 10
                    },
                    "indices" : 11,
                    "material" : 2
                }
            ]
        },
        {
            "name" : "_3D---ARCHIVADOR_GRANDE_ARD-geom.001",
            "primitives" : [
                {
                    "attributes" : {
                        "POSITION" : 12,
                        "TEXCOORD_0" : 13,
                        "NORMAL" : 14
                    },
                    "indices" : 15,
                    "material" : 3
                },
                {
                    "attributes" : {
                        "POSITION" : 16,
                        "TEXCOORD_0" : 17,
                        "NORMAL" : 18
                    },
                    "indices" : 19,
                    "material" : 4
                },
                {
                    "attributes" : {
                        "POSITION" : 20,
                        "TEXCOORD_0" : 21,
                        "NORMAL" : 22
                    },
                    "indices" : 23,
                    "material" : 5
                }
            ]
        }
    ],
    "textures" : [
        {
            "sampler" : 0,
            "source" : 0
        },
        {
            "sampler" : 0,
            "source" : 1
        },
        {
            "sampler" : 0,
            "source" : 0
        },
        {
            "sampler" : 0,
            "source" : 1
        }
    ],
    "images" : [
        {
            "bufferView" : 4,
            "mimeType" : "image/jpeg",
            "name" : "1-01"
        },
        {
            "bufferView" : 13,
            "mimeType" : "image/png",
            "name" : "_3D---ARCHIVADOR_GRANDE_ARD-I1"
        }
    ],
    "accessors" : [
        {
            "bufferView" : 0,
            "componentType" : 5126,
            "count" : 1805,
            "max" : [
                0.21634428203105927,
                0.11968328803777695,
                0.0419294573366642
            ],
            "min" : [
                -0.21782413125038147,
                -0.14149218797683716,
                -0.09015771001577377
            ],
            "type" : "VEC3"
        },
        {
            "bufferView" : 1,
            "componentType" : 5126,
            "count" : 1805,
            "type" : "VEC2"
        },
        {
            "bufferView" : 2,
            "componentType" : 5126,
            "count" : 1805,
            "type" : "VEC3"
        },
        {
            "bufferView" : 3,
            "componentType" : 5123,
            "count" : 3609,
            "type" : "SCALAR"
        },
        {
            "bufferView" : 5,
            "componentType" : 5126,
            "count" : 1616,
            "max" : [
                0.21625611186027527,
                0.11763076484203339,
                0.03987700864672661
            ],
            "min" : [
                -0.21773594617843628,
                -0.14090657234191895,
                -0.09015771001577377
            ],
            "type" : "VEC3"
        },
        {
            "bufferView" : 6,
            "componentType" : 5126,
            "count" : 1616,
            "type" : "VEC2"
        },
        {
            "bufferView" : 7,
            "componentType" : 5126,
            "count" : 1616,
            "type" : "VEC3"
        },
        {
            "bufferView" : 8,
            "componentType" : 5123,
            "count" : 3609,
            "type" : "SCALAR"
        },
        {
            "bufferView" : 9,
            "componentType" : 5126,
            "count" : 1831,
            "max" : [
                0.21634428203105927,
                0.11968328803777695,
                0.0419294573366642
            ],
            "min" : [
                -0.21782413125038147,
                -0.14149218797683716,
                -0.09015771001577377
            ],
            "type" : "VEC3"
        },
        {
            "bufferView" : 10,
            "componentType" : 5126,
            "count" : 1831,
            "type" : "VEC2"
        },
        {
            "bufferView" : 11,
            "componentType" : 5126,
            "count" : 1831,
            "type" : "VEC3"
        },
        {
            "bufferView" : 12,
            "componentType" : 5123,
            "count" : 2772,
            "type" : "SCALAR"
        },
        {
            "bufferView" : 14,
            "componentType" : 5126,
            "count" : 1789,
            "max" : [
                0.21634428203105927,
                0.24584156274795532,
                0.06761200726032257
            ],
            "min" : [
                -0.21782413125038147,
                -0.17645050585269928,
                -0.16213186085224152
            ],
            "type" : "VEC3"
        },
        {
            "bufferView" : 15,
            "componentType" : 5126,
            "count" : 1789,
            "type" : "VEC2"
        },
        {
            "bufferView" : 16,
            "componentType" : 5126,
            "count" : 1789,
            "type" : "VEC3"
        },
        {
            "bufferView" : 17,
            "componentType" : 5123,
            "count" : 3609,
            "type" : "SCALAR"
        },
        {
            "bufferView" : 18,
            "componentType" : 5126,
            "count" : 1625,
            "max" : [
                0.21625611186027527,
                0.24393080174922943,
                0.06602450460195541
            ],
            "min" : [
                -0.21773594617843628,
                -0.17586489021778107,
                -0.16055266559123993
            ],
            "type" : "VEC3"
        },
        {
            "bufferView" : 19,
            "componentType" : 5126,
            "count" : 1625,
            "type" : "VEC2"
        },
        {
            "bufferView" : 20,
            "componentType" : 5126,
            "count" : 1625,
            "type" : "VEC3"
        },
        {
            "bufferView" : 21,
            "componentType" : 5123,
            "count" : 3609,
            "type" : "SCALAR"
        },
        {
            "bufferView" : 22,
            "componentType" : 5126,
            "count" : 1804,
            "max" : [
                0.21634428203105927,
                0.24584156274795532,
                0.06761200726032257
            ],
            "min" : [
                -0.21782413125038147,
                -0.17645050585269928,
                -0.16213186085224152
            ],
            "type" : "VEC3"
        },
        {
            "bufferView" : 23,
            "componentType" : 5126,
            "count" : 1804,
            "type" : "VEC2"
        },
        {
            "bufferView" : 24,
            "componentType" : 5126,
            "count" : 1804,
            "type" : "VEC3"
        },
        {
            "bufferView" : 25,
            "componentType" : 5123,
            "count" : 2772,
            "type" : "SCALAR"
        }
    ],
    "bufferViews" : [
        {
            "buffer" : 0,
            "byteLength" : 21660,
            "byteOffset" : 0,
            "target" : 34962
        },
        {
            "buffer" : 0,
            "byteLength" : 14440,
            "byteOffset" : 21660,
            "target" : 34962
        },
        {
            "buffer" : 0,
            "byteLength" : 21660,
            "byteOffset" : 36100,
            "target" : 34962
        },
        {
            "buffer" : 0,
            "byteLength" : 7218,
            "byteOffset" : 57760,
            "target" : 34963
        },
        {
            "buffer" : 0,
            "byteLength" : 127064,
            "byteOffset" : 64980
        },
        {
            "buffer" : 0,
            "byteLength" : 19392,
            "byteOffset" : 192044,
            "target" : 34962
        },
        {
            "buffer" : 0,
            "byteLength" : 12928,
            "byteOffset" : 211436,
            "target" : 34962
        },
        {
            "buffer" : 0,
            "byteLength" : 19392,
            "byteOffset" : 224364,
            "target" : 34962
        },
        {
            "buffer" : 0,
            "byteLength" : 7218,
            "byteOffset" : 243756,
            "target" : 34963
        },
        {
            "buffer" : 0,
            "byteLength" : 21972,
            "byteOffset" : 250976,
            "target" : 34962
        },
        {
            "buffer" : 0,
            "byteLength" : 14648,
            "byteOffset" : 272948,
            "target" : 34962
        },
        {
            "buffer" : 0,
            "byteLength" : 21972,
            "byteOffset" : 287596,
            "target" : 34962
        },
        {
            "buffer" : 0,
            "byteLength" : 5544,
            "byteOffset" : 309568,
            "target" : 34963
        },
        {
            "buffer" : 0,
            "byteLength" : 767,
            "byteOffset" : 315112
        },
        {
            "buffer" : 0,
            "byteLength" : 21468,
            "byteOffset" : 315880,
            "target" : 34962
        },
        {
            "buffer" : 0,
            "byteLength" : 14312,
            "byteOffset" : 337348,
            "target" : 34962
        },
        {
            "buffer" : 0,
            "byteLength" : 21468,
            "byteOffset" : 351660,
            "target" : 34962
        },
        {
            "buffer" : 0,
            "byteLength" : 7218,
            "byteOffset" : 373128,
            "target" : 34963
        },
        {
            "buffer" : 0,
            "byteLength" : 19500,
            "byteOffset" : 380348,
            "target" : 34962
        },
        {
            "buffer" : 0,
            "byteLength" : 13000,
            "byteOffset" : 399848,
            "target" : 34962
        },
        {
            "buffer" : 0,
            "byteLength" : 19500,
            "byteOffset" : 412848,
            "target" : 34962
        },
        {
            "buffer" : 0,
            "byteLength" : 7218,
            "byteOffset" : 432348,
            "target" : 34963
        },
        {
            "buffer" : 0,
            "byteLength" : 21648,
            "byteOffset" : 439568,
            "target" : 34962
        },
        {
            "buffer" : 0,
            "byteLength" : 14432,
            "byteOffset" : 461216,
            "target" : 34962
        },
        {
            "buffer" : 0,
            "byteLength" : 21648,
            "byteOffset" : 475648,
            "target" : 34962
        },
        {
            "buffer" : 0,
            "byteLength" : 5544,
            "byteOffset" : 497296,
            "target" : 34963
        }
    ],
    "samplers" : [
        {
            "magFilter" : 9729,
            "minFilter" : 9987
        }
    ],
    "buffers" : [
        {
            "byteLength" : 502840,
            "uri" : "data:application/octet-stream;base64,"
        }
    ]
}
